# xmcd
#
# Track frame offsets:
#	150
#	12834
#	25266
#	38809
#	51703
#	67265
#	76544
#	89983
#	102302
#	113335
#	124081
#	134193
#	147501
#	158510
#
# Disc length: 2295 seconds
#
# Revision: 1
# Processed by: cddbd v1.5.2PL0 Copyright (c) Steve Scherf et al.
# Submitted via: EasyCDDAExtractor 16.0.6.1
#
DISCID=c508f50e
DTITLE=Varios -  C-089 Exitos del Country Vol.3
DYEAR=1900
DGENRE=Country
TTITLE0=Willie Nelson - Shelter Of Your Arms
TTITLE1=Frankie Nelson - High Noon
TTITLE2=Bellamy Brothers - Do You Love As Good As You Look
TTITLE3=Lynn Anderson - Top Of The World
TTITLE4=Kenny Rogers - For The Good Times
TTITLE5=Dorsey Burnete - Together Again
TTITLE6=George Jones - Weddings Bell
TTITLE7=Danny Williams - Moon River
TTITLE8=Billie Jo Spear - All I Have To Do Is Dream
TTITLE9=Johnny Russell - Blue Eyes Crying In The Rain
TTITLE10=Willie Nelson - Broken Promises
TTITLE11=Johnny Paycheck - Tennesse Waltz
TTITLE12=Carl Perkins - Dixie Friend
TTITLE13=Freddy Fender - Baby I Want To Love You
EXTD=
EXTT0=
EXTT1=
EXTT2=
EXTT3=
EXTT4=
EXTT5=
EXTT6=
EXTT7=
EXTT8=
EXTT9=
EXTT10=
EXTT11=
EXTT12=
EXTT13=
PLAYORDER=
